<svg xmlns="http://www.w3.org/2000/svg" xmlns:xlink="http://www.w3.org/1999/xlink" viewBox="0 0 44 72.5" version="1.1" x="0px" y="0px"><title>24 -Plant- (Outline)</title><desc>Created with Sketch.</desc><g stroke="none" stroke-width="1" fill="none" fill-rule="evenodd" stroke-linecap="round" stroke-linejoin="round"><g transform="translate(-487.000000, -644.000000)" stroke="#000000" stroke-width="2"><g transform="translate(488.000000, 645.000000)"><path d="M5,56.0002 L39,56.0002"/><path d="M22,56.0002 L22,17.0002"/><path d="M17,39.0002 C18.067,40.1382 20.094,41.5632 22,45.0002"/><path d="M17,39.0002 C17,26.0462 11.565,23.0002 0,23.0002 C0,35.5052 7.642,39.0002 17,39.0002 L17,39.0002 Z"/><path d="M17,39.0002 C14.604,35.2502 12,32.3752 9,31.0002"/><path d="M28,42.0002 C26.125,44.0002 23.844,46.5302 22,50.0002"/><path d="M28,42.0002 C28,31.1122 32.9,29.0002 42,29.0002 C42.171,39.5552 37.425,42.0002 28,42.0002 L28,42.0002 Z"/><path d="M28,42.0002 C29.594,39.3442 31.344,37.1562 34,36.0002"/><path d="M22,17.0002 C22.029,13.2232 22.678,10.8412 24.55,8.0002"/><path d="M31,0.0002 C33.547,7.8592 27.259,12.4032 22.375,13.0002 C18.741,7.6022 21.25,1.3282 31,0.0002"/><path d="M18,22.0002 C9.625,22.0002 8,18.0002 8,11.0002 C16.119,10.8682 18,14.7502 18,22.0002 L18,22.0002 Z"/><path d="M14,17.6669 L18,21.9999 C18,21.9999 22,25.9999 22,28.9999"/><path d="M22,33.0002 C22,31.0562 24.035,28.1322 26,26.0002 C26.752,25.1842 29.531,21.9372 32,20.0002"/><path d="M39,13.0002 C39,24.9622 35.118,26.0002 26,26.0002"/><path d="M26,26.0002 C26,14.0382 29.882,13.0002 39,13.0002"/></g></g></g><text x="0" y="73" fill="#000000" font-size="5px" font-weight="bold" font-family="'Helvetica Neue', Helvetica, Arial-Unicode, Arial, Sans-serif">Created by Ben Davis</text><text x="0" y="78" fill="#000000" font-size="5px" font-weight="bold" font-family="'Helvetica Neue', Helvetica, Arial-Unicode, Arial, Sans-serif">from the Noun Project</text></svg>