<svg xmlns="http://www.w3.org/2000/svg" xmlns:xlink="http://www.w3.org/1999/xlink" version="1.1" x="0px" y="0px" viewBox="0 0 100 125" style="enable-background:new 0 0 100 100;" xml:space="preserve"><path d="M49.998,48.33c-7.949,0-14.417,6.468-14.417,14.417c0,7.95,6.468,14.418,14.417,14.418c7.95,0,14.418-6.468,14.418-14.418  C64.416,54.798,57.948,48.33,49.998,48.33z M49.998,75.165c-6.847,0-12.417-5.57-12.417-12.418c0-6.847,5.57-12.417,12.417-12.417  c6.848,0,12.418,5.57,12.418,12.417C62.416,69.595,56.846,75.165,49.998,75.165z"/><path d="M82.833,37.791v-5.819c0-2.662-2.165-4.827-4.826-4.827h-0.076c-0.24-4.857-4.255-8.738-9.17-8.738  c-1.286,0-2.552,0.271-3.722,0.792c-1.666-5.416-6.725-9.224-12.493-9.224c-4.562,0-8.724,2.345-11.102,6.186  c-1.932-1.072-4.098-1.634-6.325-1.634c-7.055,0-12.808,5.621-13.05,12.618h-0.076c-2.661,0-4.826,2.165-4.826,4.827v5.819  c0,1.711,0.9,3.207,2.246,4.065L17.44,75.968l-1.718,3.551c-1.093,1.155-1.692,2.66-1.692,4.257c0,1.656,0.645,3.213,1.815,4.384  c2.416,2.418,6.351,2.419,8.767,0l1.078-1.078c3.796,0.881,26.184,5.581,48.625,0.006l1.072,1.072  c1.208,1.209,2.796,1.812,4.383,1.812c1.588,0,3.176-0.604,4.384-1.812c1.171-1.171,1.815-2.728,1.815-4.384  c0-1.597-0.6-3.102-1.692-4.257l-1.718-3.551l-1.972-34.112C81.933,40.998,82.833,39.502,82.833,37.791z M35.119,16.526  c2.191,0,4.312,0.642,6.133,1.856c0.237,0.157,0.53,0.207,0.807,0.136c0.275-0.071,0.508-0.258,0.638-0.512  c1.908-3.721,5.683-6.032,9.85-6.032c5.266,0,9.831,3.743,10.857,8.901c0.064,0.323,0.283,0.594,0.587,0.724  c0.302,0.132,0.65,0.102,0.929-0.074c1.156-0.732,2.484-1.119,3.842-1.119c3.813,0,6.934,2.984,7.17,6.738H24.069  C24.31,21.251,29.167,16.526,35.119,16.526z M80.574,76.282c0.007,0.131,0.041,0.26,0.098,0.378l1.875,3.875  c0.049,0.101,0.114,0.192,0.193,0.271c0.793,0.793,1.229,1.848,1.229,2.969c0,1.122-0.437,2.177-1.229,2.97  s-1.848,1.229-2.969,1.229c-1.122,0-2.177-0.437-2.97-1.229l-1.474-1.474c-0.249-0.251-0.612-0.351-0.955-0.262  c-24.178,6.194-48.501,0.063-48.744,0.001c-0.345-0.09-0.708,0.01-0.957,0.261l-1.474,1.474c-0.793,0.793-1.848,1.229-2.97,1.229  c-1.121,0-2.176-0.437-2.969-1.229s-1.229-1.848-1.229-2.97c0-1.121,0.437-2.176,1.229-2.969c0.079-0.079,0.145-0.171,0.193-0.271  l1.875-3.875c0.057-0.118,0.091-0.247,0.098-0.378l1.949-33.727c0.205,0.027,0.407,0.062,0.618,0.062h56.014  c0.212,0,0.414-0.036,0.618-0.062L80.574,76.282z M80.833,37.791c0,1.559-1.268,2.827-2.826,2.827H21.993  c-1.559,0-2.826-1.269-2.826-2.827v-5.819c0-1.559,1.268-2.827,2.826-2.827h56.014c1.559,0,2.826,1.269,2.826,2.827V37.791z"/><text x="0" y="115" fill="#000000" font-size="5px" font-weight="bold" font-family="'Helvetica Neue', Helvetica, Arial-Unicode, Arial, Sans-serif">Created by Made</text><text x="0" y="120" fill="#000000" font-size="5px" font-weight="bold" font-family="'Helvetica Neue', Helvetica, Arial-Unicode, Arial, Sans-serif">from the Noun Project</text></svg>