<svg xmlns="http://www.w3.org/2000/svg" xmlns:xlink="http://www.w3.org/1999/xlink" viewBox="0 0 60 75" version="1.1" x="0px" y="0px"><title>66 -Fretile Soil- (Outline)</title><desc>Created with Sketch.</desc><g stroke="none" stroke-width="1" fill="none" fill-rule="evenodd" stroke-linecap="round" stroke-linejoin="round"><g transform="translate(-720.000000, -1122.000000)" stroke="#000000" stroke-width="2"><g transform="translate(721.000000, 1123.000000)"><path d="M0,43.0002 L10,43.0002"/><path d="M21,42.0002 L26,42.0002"/><path d="M11,49.0002 L19,49.0002"/><path d="M29,46.0002 L40,46.0002"/><path d="M50,46.0002 L58,46.0002"/><path d="M39,51.0002 L50,51.0002"/><path d="M0,52.0002 L5,52.0002"/><path d="M23,54.0002 L30,54.0002"/><path d="M41,39.0002 L41,39.0002 L41,39.0002 C43.596,37.0532 46.754,36.0002 50,36.0002 L58,36.0002 L58,58.0002 L0,58.0002 L0,36.0002 L4,36.0002 C7.246,36.0002 10.404,37.0532 13,39.0002 L13,39.0002 L13,39.0002 C15.596,37.0532 18.754,36.0002 22,36.0002 L32,36.0002 C35.246,36.0002 38.404,37.0532 41,39.0002 L41,39.0002 Z"/><path d="M13,39.0002 C11.875,29.5832 14.146,17.6722 16,14.0002"/><path d="M10,0.0002 C6.909,7.3792 8.65,10.9212 16,14.0002 C19.091,6.6212 17.35,3.0792 10,0.0002 L10,0.0002 Z"/><path d="M16,14.0002 C23.379,17.0912 26.921,15.3502 30,8.0002 C22.621,4.9092 19.079,6.6502 16,14.0002 L16,14.0002 Z"/><path d="M41,39.0002 C39.875,29.5832 42.146,17.6722 44,14.0002"/><path d="M38,0.0002 C34.909,7.3792 36.65,10.9212 44,14.0002 C47.091,6.6212 45.35,3.0792 38,0.0002 L38,0.0002 Z"/><path d="M44,14.0002 C51.379,17.0912 54.921,15.3502 58,8.0002 C50.621,4.9092 47.079,6.6502 44,14.0002 L44,14.0002 Z"/></g></g></g><text x="0" y="75" fill="#000000" font-size="5px" font-weight="bold" font-family="'Helvetica Neue', Helvetica, Arial-Unicode, Arial, Sans-serif">Created by Ben Davis</text><text x="0" y="80" fill="#000000" font-size="5px" font-weight="bold" font-family="'Helvetica Neue', Helvetica, Arial-Unicode, Arial, Sans-serif">from the Noun Project</text></svg>