<svg xmlns="http://www.w3.org/2000/svg" xmlns:xlink="http://www.w3.org/1999/xlink" version="1.1" x="0px" y="0px" viewBox="0 0 68 85" style="enable-background:new 0 0 68 68;" xml:space="preserve"><style type="text/css">
	.st0{fill:#010101;}
</style><g><g><g><path class="st0" d="M22.9,14.8c-4.5,0-8.2,3.6-8.2,8.1s3.7,8.1,8.2,8.1s8.2-3.6,8.2-8.1S27.5,14.8,22.9,14.8z M22.9,29.1     c-3.4,0-6.2-2.7-6.2-6.1s2.8-6.1,6.2-6.1s6.2,2.7,6.2,6.1S26.4,29.1,22.9,29.1z"/></g></g><g><g><path class="st0" d="M61.4,44.1l-2.5-0.3c-0.3-1.2-0.8-2.3-1.4-3.3l2.3-2.9L57,34.8c-0.5-0.5-1.3-0.5-1.8-0.1l-2,1.5     c-1-0.6-2.2-1.1-3.3-1.4l-0.3-2.5c-0.1-0.7-0.7-1.2-1.3-1.2h-2.7c-0.7,0-1.3,0.5-1.3,1.2l-0.3,2.5c-1.2,0.3-2.3,0.8-3.3,1.4     l-2-1.5c-0.5-0.4-1.3-0.3-1.8,0.1l-1.9,1.9c-0.5,0.5-0.5,1.2-0.1,1.8l1.5,2c-0.6,1-1.1,2.1-1.4,3.3l-2.5,0.3     c-0.7,0.1-1.2,0.7-1.2,1.3v2.7c0,0.7,0.5,1.3,1.2,1.3l2.5,0.3c0.3,1.2,0.8,2.3,1.4,3.3l-1.5,2c-0.4,0.5-0.4,1.3,0.1,1.8l1.9,1.9     c0.5,0.5,1.2,0.5,1.8,0.1l2-1.5c1,0.6,2.2,1.1,3.3,1.4l0.3,2.5c0.1,0.7,0.7,1.2,1.3,1.2h2.7c0.7,0,1.3-0.5,1.3-1.2l0.3-2.5     c1.2-0.3,2.3-0.8,3.3-1.4l2,1.5c0.2,0.2,0.5,0.3,0.9,0.3c0.4,0,0.7-0.1,1-0.4l1.9-1.9c0.5-0.5,0.5-1.2,0.1-1.8l-1.5-2     c0.6-1,1.1-2.1,1.4-3.3l2.5-0.3c0.7-0.1,1.2-0.7,1.2-1.3v-2.7C62.6,44.8,62.1,44.2,61.4,44.1z M60.6,47.6l-2.4,0.3     c-0.6,0.1-1,0.5-1.1,1.1c-0.3,1.2-0.8,2.4-1.4,3.5c-0.3,0.5-0.3,1.1,0.1,1.6l1.5,1.9L56,57L54,55.5c-0.4-0.3-1.1-0.4-1.6-0.1     c-1.1,0.7-2.2,1.2-3.5,1.4c-0.6,0.1-1,0.6-1.1,1.1l-0.3,2.4H46L45.7,58c-0.1-0.6-0.5-1-1.1-1.1c-1.3-0.3-2.4-0.7-3.5-1.4     c-0.5-0.3-1.1-0.3-1.6,0.1L37.6,57l-1.1-1.1l1.6-2.1l0.5-0.6l-0.4-0.6c-0.7-1.1-1.3-2.3-1.5-3.6c-0.1-0.6-0.6-1-1.1-1.1L33,47.6     V46l2.4-0.3c0.6-0.1,1-0.5,1.1-1.1c0.3-1.2,0.8-2.4,1.4-3.5c0.3-0.5,0.3-1.1-0.1-1.6l-1.5-1.9l1.1-1.1l1.8,1.4l0.6,0.4l0.7,0     l0.3-0.2c1.1-0.7,2.3-1.3,3.7-1.5c0.6-0.1,1-0.6,1.1-1.1l0.3-2.4h1.6l0.3,2.4c0.1,0.6,0.5,1,1.1,1.1c1.3,0.3,2.4,0.7,3.5,1.4     c0.5,0.3,1.1,0.3,1.6-0.1l1.9-1.5l1.1,1.1l-1.5,1.9c-0.4,0.5-0.4,1.1-0.1,1.6c0.7,1.1,1.2,2.2,1.4,3.5c0.1,0.6,0.6,1,1.1,1.1     l2.4,0.3V47.6z"/></g></g><g><g><path class="st0" d="M46.8,39.3c-4.2,0-7.6,3.4-7.6,7.5c0,4.2,3.4,7.5,7.6,7.5c4.2,0,7.6-3.4,7.6-7.5     C54.4,42.6,51,39.3,46.8,39.3z M46.8,52.3c-3.1,0-5.6-2.5-5.6-5.5c0-3.1,2.5-5.5,5.6-5.5c3.1,0,5.6,2.5,5.6,5.5     C52.4,49.8,49.9,52.3,46.8,52.3z"/></g></g><g><g><path class="st0" d="M46.8,26.6c-0.8,0-1.5,0.1-2.2,0.1c0.2-1.2,0.3-2.5,0.3-3.7c0-12.1-9.8-22-21.9-22C10.8,1,1,10.9,1,23     c0,12.1,9.8,22,21.9,22c1.3,0,2.6-0.1,3.8-0.3c-0.1,0.7-0.1,1.5-0.1,2.2c0,11.1,9.1,20.2,20.2,20.2C57.9,67,67,57.9,67,46.8     C67,35.6,57.9,26.6,46.8,26.6z M22.9,42.9C11.9,42.9,3,34,3,23C3,12,11.9,3,22.9,3s19.9,9,19.9,20c0,1.4-0.2,2.8-0.4,4.1     c-2.8,0.6-5.3,1.8-7.5,3.4l-0.5-0.6c0.7-1.2,1.2-2.4,1.5-3.7c0.8-0.1,2.2-0.3,2.8-0.4c0.7-0.1,1.2-0.7,1.2-1.4v-2.9     c0-0.7-0.5-1.3-1.2-1.4L36,19.7c-0.3-1.3-0.8-2.5-1.5-3.7l2.5-3.2l-3-3c-0.5-0.5-1.3-0.5-1.8-0.1l-2.3,1.7     c-1.2-0.7-2.4-1.2-3.7-1.5l-0.4-2.8C25.7,6.5,25.1,6,24.4,6h-3c-0.7,0-1.3,0.5-1.4,1.2L19.7,10c-1.3,0.3-2.6,0.8-3.7,1.5     c-0.7-0.5-1.8-1.3-2.3-1.7c-0.5-0.4-1.3-0.4-1.8,0.1L9.8,12c-0.5,0.5-0.5,1.2-0.1,1.8l1.7,2.2c-0.7,1.2-1.2,2.4-1.5,3.7l-0.2,0     C8.8,19.9,7.6,20,7,20.1c-0.7,0.1-1.2,0.7-1.2,1.4v2.9c0,0.7,0.5,1.3,1.2,1.4l2.8,0.4c0.3,1.3,0.8,2.5,1.5,3.7     c-0.5,0.7-1.3,1.7-1.7,2.2c-0.4,0.5-0.4,1.3,0.1,1.8l2.1,2.1c0.5,0.5,1.2,0.5,1.8,0.1l2.3-1.7c1.2,0.7,2.4,1.2,3.7,1.5l0.4,2.8     c0.1,0.7,0.7,1.2,1.4,1.2h3c0.7,0,1.3-0.5,1.4-1.2l0.4-2.8c1.3-0.3,2.6-0.8,3.7-1.5l0.6,0.5c-1.6,2.2-2.8,4.8-3.5,7.6     C25.7,42.8,24.4,42.9,22.9,42.9z M31.8,33.3l-1-0.8c-0.5-0.4-1.1-0.4-1.6-0.1c-1.2,0.8-2.5,1.3-3.8,1.6c-0.6,0.1-1,0.6-1.1,1.2     l-0.4,2.7H22l-0.4-2.7c-0.1-0.6-0.5-1.1-1.1-1.2c-1.4-0.3-2.7-0.8-3.8-1.6c-0.5-0.3-1.1-0.3-1.6,0.1l-2.2,1.7l-1.3-1.3     c0.6-0.8,1.6-2,1.8-2.3l0.6-0.7l-0.6-0.6c-0.8-1.2-1.3-2.5-1.7-3.9c-0.1-0.6-0.6-1-1.2-1.1l-2.7-0.4V22c0.6-0.1,1.5-0.2,2.1-0.3     l0.6-0.1c0.6-0.1,1-0.5,1.2-1.1c0.3-1.3,0.8-2.6,1.6-3.8c0.3-0.5,0.3-1.2-0.1-1.6L11.6,13l1.3-1.3c0.8,0.6,2.1,1.6,2.4,1.8     l0.8,0.4l0.5-0.5c1.2-0.8,2.5-1.3,4-1.6c0.6-0.1,1-0.6,1.1-1.2L22,8h1.9l0.4,2.7c0.1,0.6,0.5,1,1.1,1.2c1.4,0.3,2.7,0.8,3.8,1.6     c0.5,0.3,1.1,0.3,1.6-0.1l2.2-1.7l1.3,1.3l-1.7,2.2c-0.3,0.5-0.3,1.1,0,1.6c0.8,1.2,1.3,2.4,1.6,3.8c0.1,0.6,0.6,1,1.2,1.1     l2.7,0.4v1.9c-0.9,0.1-2.2,0.3-2.7,0.4c-0.6,0.1-1,0.5-1.2,1.1c-0.3,1.4-0.8,2.6-1.6,3.8c-0.3,0.5-0.3,1.1,0,1.6l0.8,1     C32.8,32.2,32.3,32.8,31.8,33.3z M46.8,65c-10,0-18.2-8.2-18.2-18.2s8.2-18.2,18.2-18.2S65,36.7,65,46.8S56.8,65,46.8,65z"/></g></g><g><g><path class="st0" d="M45.6,9C45.6,9,45.6,9.1,45.6,9l5,4.6c0.4,0.4,1,0.4,1.4-0.1c0.4-0.4,0.4-1-0.1-1.4l-3.1-2.9h12.9v17.2     c0,0.6,0.4,1,1,1c0.6,0,1-0.4,1-1V8.3c0-0.6-0.4-1-1-1H48.9l3-2.7c0.4-0.4,0.4-1,0.1-1.4c-0.4-0.4-1-0.4-1.4-0.1l-5,4.5     c-0.2,0.2-0.3,0.4-0.3,0.7C45.3,8.6,45.4,8.9,45.6,9z"/></g></g><g><g><path class="st0" d="M25,59.9c0-0.3-0.1-0.5-0.3-0.7l-5-4.6c-0.4-0.4-1-0.4-1.4,0.1c-0.4,0.4-0.4,1,0.1,1.4l3.1,2.9H8.5v-12     c0-0.6-0.4-1-1-1c-0.6,0-1,0.4-1,1v13c0,0.6,0.4,1,1,1h13.9l-3,2.7c-0.4,0.4-0.4,1-0.1,1.4c0.4,0.4,1,0.4,1.4,0.1l5-4.5     C25.1,60.3,25,59.6,25,59.9z"/></g></g></g><text x="0" y="83" fill="#000000" font-size="5px" font-weight="bold" font-family="'Helvetica Neue', Helvetica, Arial-Unicode, Arial, Sans-serif">Created by Vectors Market</text><text x="0" y="88" fill="#000000" font-size="5px" font-weight="bold" font-family="'Helvetica Neue', Helvetica, Arial-Unicode, Arial, Sans-serif">from the Noun Project</text></svg>