<?xml version="1.0" encoding="utf-8"?>
<svg
xmlns="http://www.w3.org/2000/svg"
width="600" height="450"
>
	<title>Water Retention Curves</title>
	<desc>
		* This is a corrected version of
		  https://commons.wikimedia.org/wiki/File:Wrc.svg
		  generated by DufterKunde
		  https://de.wikipedia.org/wiki/Benutzer:DufterKunde
		  on 2015-08-17.
		* The plot shows the matric potential Psi_m
		  of different types of soil as a function of the
		  relative soil water content theta.
		  It is based on the equation and parameters from
		  {{cite web
		  | url=https://www.bgr.bund.de/DE/Themen/Boden/Netzwerke/Adhocag/Downloads/Ergaenzungsregel_1_18.pdf
		  | title=Verknüpfungsregel 1.18 – Parameter für das Modell einer stetigen Funktion der θ(ψ)-Beziehung
		  | accessdate=2015-07-29
		  | author=Ad-hoc-AG Boden
		  | coauthors=
		  | date=2004-09-17
		  | format=PDF, 242 KiB
		  | publisher=Staatlichen Geologischen Dienste und BGR
		  | language=German
		  }}
		  theta = theta_r + (theta_s - theta_r)/(1 + (alpha*(-psi))^n)^m
		  with
		  m     = 1 - 1/n .
		* Ss = Sand, Uu = Silt, Lu = Loam-Silt, Tt = Clay.
		* This svg-file has been generated line-by-line
		  by a GNU Octave function.
		* Compliance with the svg standard validated by:
		  https://validator.w3.org/
		  and practical functionality tested with
		  - Mozilla Firefox for Ubuntu 40.0,
		  - Chromium 43.0.2357.130 Ubuntu 15.04 (64-bit)
		  - eog (“Eye of Gnome”) 3.14.4,
		  - Inkscape 0.91 r13725, and
		  - SVG Check: https://tools.wmflabs.org/svgcheck/ (rsvg 2.36.1).
	</desc>
	<g shape-rendering="geometricPrecision" stroke="black" stroke-width="2">
		<!-- horizontal grid lines: -->
		<g stroke="#c0c0c0">
			<polyline points="70,330 550,330"/>
			<polyline points="70,270 550,270"/>
			<polyline points="70,210 550,210"/>
			<polyline points="70,150 550,150"/>
			<polyline points="70,90 550,90"/>
		</g>
		<!-- actual graph data: -->
		<g fill="none" stroke-width="3">
			<polyline stroke="#0000ff" points="391.29,390 390.35,384 389.00,378 387.11,372 384.48,366 380.85,360 375.94,354 369.41,348 360.99,342 350.47,336 337.83,330 323.29,324 307.28,318 290.39,312 273.28,306 256.52,300 240.55,294 225.68,288 212.06,282 199.75,276 188.72,270 178.90,264 170.20,258 162.52,252 155.76,246 149.81,240 144.59,234 140.01,228 135.99,222 132.46,216 129.37,210 126.67,204 124.30,198 122.22,192 120.40,186 118.80,180 117.41,174 116.18,168 115.11,162 114.17,156 113.35,150 112.63,144 112.00,138 111.45,132 110.96,126 110.54,120 110.17,114 109.84,108 109.56,102 109.31,96 109.09,90">
				<title>Ss = Sand</title>
			</polyline>
			<polyline stroke="#ff0000" points="437.60,390 437.58,384 437.56,378 437.53,372 437.49,366 437.43,360 437.35,354 437.25,348 437.10,342 436.91,336 436.65,330 436.29,324 435.81,318 435.15,312 434.27,306 433.08,300 431.49,294 429.37,288 426.59,282 422.96,276 418.29,270 412.38,264 405.05,258 396.19,252 385.75,246 373.79,240 360.51,234 346.18,228 331.15,222 315.76,216 300.34,210 285.18,204 270.47,198 256.38,192 242.99,186 230.37,180 218.54,174 207.48,168 197.17,162 187.60,156 178.71,150 170.47,144 162.84,138 155.79,132 149.26,126 143.22,120 137.64,114 132.49,108 127.72,102 123.32,96 119.25,90 115.50,84 112.02,78 108.82,72 105.86,66 103.12,60 100.59,54 98.26,48 96.10,42 94.11,36 92.27,30">
				<title>Uu = Silt</title>
			</polyline>
			<polyline stroke="#00ff00" points="437.29,390 437.20,384 437.08,378 436.92,372 436.72,366 436.46,360 436.13,354 435.70,348 435.15,342 434.46,336 433.57,330 432.46,324 431.07,318 429.33,312 427.21,306 424.63,300 421.53,294 417.89,288 413.68,282 408.88,276 403.52,270 397.65,264 391.32,258 384.62,252 377.63,246 370.42,240 363.08,234 355.67,228 348.25,222 340.87,216 333.56,210 326.35,204 319.27,198 312.33,192 305.54,186 298.90,180 292.43,174 286.13,168 279.99,162 274.01,156 268.20,150 262.54,144 257.05,138 251.70,132 246.51,126 241.46,120 236.56,114 231.80,108 227.17,102 222.67,96 218.30,90 214.06,84 209.93,78 205.93,72 202.04,66 198.26,60 194.59,54 191.02,48 187.56,42 184.19,36 180.92,30">
				<title>Lu = Loam-Silt</title>
			</polyline>
			<polyline stroke="#b000b0" points="550.31,390 550.26,384 550.20,378 550.13,372 550.03,366 549.91,360 549.75,354 549.55,348 549.29,342 548.96,336 548.55,330 548.02,324 547.36,318 546.53,312 545.49,306 544.21,300 542.63,294 540.71,288 538.41,282 535.66,276 532.45,270 528.75,264 524.55,258 519.87,252 514.73,246 509.18,240 503.26,234 497.05,228 490.61,222 483.98,216 477.23,210 470.41,204 463.55,198 456.69,192 449.85,186 443.06,180 436.33,174 429.68,168 423.12,162 416.65,156 410.27,150 404.00,144 397.83,138 391.76,132 385.81,126 379.95,120 374.20,114 368.55,108 363.01,102 357.56,96 352.22,90 346.97,84 341.82,78 336.77,72 331.81,66 326.94,60 322.16,54 317.47,48 312.87,42 308.35,36 303.92,30">
				<title>Tt = Clay</title>
			</polyline>
		</g>
		<!-- ticks on x-axis: -->
		<polyline points="157.27,390 157.27,382"/>
		<polyline points="157.27,38 157.27,30"/>
		<polyline points="244.55,390 244.55,382"/>
		<polyline points="244.55,38 244.55,30"/>
		<polyline points="331.82,390 331.82,382"/>
		<polyline points="331.82,38 331.82,30"/>
		<polyline points="419.09,390 419.09,382"/>
		<polyline points="419.09,38 419.09,30"/>
		<polyline points="506.36,390 506.36,382"/>
		<polyline points="506.36,38 506.36,30"/>
		<!-- major ticks on y-axis: -->
		<polyline points="70,330 78,330"/>
		<polyline points="542,330 550,330"/>
		<polyline points="70,270 78,270"/>
		<polyline points="542,270 550,270"/>
		<polyline points="70,210 78,210"/>
		<polyline points="542,210 550,210"/>
		<polyline points="70,150 78,150"/>
		<polyline points="542,150 550,150"/>
		<polyline points="70,90 78,90"/>
		<polyline points="542,90 550,90"/>
		<!-- minor log-ticks on left y-axis: -->
		<polyline points="70,371.94 76,371.94"/>
		<polyline points="70,361.37 76,361.37"/>
		<polyline points="70,353.88 76,353.88"/>
		<polyline points="70,348.06 76,348.06"/>
		<polyline points="70,343.31 76,343.31"/>
		<polyline points="70,339.29 76,339.29"/>
		<polyline points="70,335.81 76,335.81"/>
		<polyline points="70,332.75 76,332.75"/>
		<polyline points="70,311.94 76,311.94"/>
		<polyline points="70,301.37 76,301.37"/>
		<polyline points="70,293.88 76,293.88"/>
		<polyline points="70,288.06 76,288.06"/>
		<polyline points="70,283.31 76,283.31"/>
		<polyline points="70,279.29 76,279.29"/>
		<polyline points="70,275.81 76,275.81"/>
		<polyline points="70,272.75 76,272.75"/>
		<polyline points="70,251.94 76,251.94"/>
		<polyline points="70,241.37 76,241.37"/>
		<polyline points="70,233.88 76,233.88"/>
		<polyline points="70,228.06 76,228.06"/>
		<polyline points="70,223.31 76,223.31"/>
		<polyline points="70,219.29 76,219.29"/>
		<polyline points="70,215.81 76,215.81"/>
		<polyline points="70,212.75 76,212.75"/>
		<polyline points="70,191.94 76,191.94"/>
		<polyline points="70,181.37 76,181.37"/>
		<polyline points="70,173.88 76,173.88"/>
		<polyline points="70,168.06 76,168.06"/>
		<polyline points="70,163.31 76,163.31"/>
		<polyline points="70,159.29 76,159.29"/>
		<polyline points="70,155.81 76,155.81"/>
		<polyline points="70,152.75 76,152.75"/>
		<polyline points="70,131.94 76,131.94"/>
		<polyline points="70,121.37 76,121.37"/>
		<polyline points="70,113.88 76,113.88"/>
		<polyline points="70,108.06 76,108.06"/>
		<polyline points="70,103.31 76,103.31"/>
		<polyline points="70,99.29 76,99.29"/>
		<polyline points="70,95.81 76,95.81"/>
		<polyline points="70,92.75 76,92.75"/>
		<polyline points="70,71.94 76,71.94"/>
		<polyline points="70,61.37 76,61.37"/>
		<polyline points="70,53.88 76,53.88"/>
		<polyline points="70,48.06 76,48.06"/>
		<polyline points="70,43.31 76,43.31"/>
		<polyline points="70,39.29 76,39.29"/>
		<polyline points="70,35.81 76,35.81"/>
		<polyline points="70,32.75 76,32.75"/>
		<!-- legend: -->
		<rect x="443" y="42" width="95" height="120" stroke="black" fill="white"/>
		<g fill="none" stroke-width="3">
			<polyline stroke="#0000ff" points="451,57 486,57"/>
			<polyline stroke="#ff0000" points="451,87 486,87"/>
			<polyline stroke="#00ff00" points="451,117 486,117"/>
			<polyline stroke="#b000b0" points="451,147 486,147"/>
		</g>
		<!-- axis-box: -->
		<polygon points="70,30 550,30 550,390 70,390" fill="none" stroke="black" stroke-width="2"/>
		<!-- text: -->
		<g stroke-width="0" fill="black" font-family="Helvetica" font-size="24">
			<!-- x-axis annotation: -->
			<text x="300" y="445" text-anchor="middle" font-style="italic">θ</text>
			<text x="70" y="420" text-anchor="middle">0</text>
			<text x="157.273" y="420" text-anchor="middle">0.1</text>
			<text x="244.545" y="420" text-anchor="middle">0.2</text>
			<text x="331.818" y="420" text-anchor="middle">0.3</text>
			<text x="419.091" y="420" text-anchor="middle">0.4</text>
			<text x="506.364" y="420" text-anchor="middle">0.5</text>
			<!-- y-axis annotation: -->
			<text x="-203" y="593" transform="rotate(-90)" text-anchor="end">p</text>
			<text x="-203" y="593" transform="rotate(-90)" text-anchor="start" font-style="italic">F</text>
			<text x="-230" y="19" transform="rotate(-90)" text-anchor="end" font-style="italic">–ψ</text>
			<text x="-230" y="26" transform="rotate(-90)" text-anchor="start" font-size="18">m</text>
			<text x="-210" y="19" transform="rotate(-90)" text-anchor="start">/ hPa</text>
			<text x="558" y="400" text-anchor="start">0</text>
			<text x="55" y="400" text-anchor="end">10</text>
			<text x="55" y="388" text-anchor="start" font-size="18">0</text>
			<text x="558" y="340" text-anchor="start">1</text>
			<text x="55" y="340" text-anchor="end">10</text>
			<text x="55" y="328" text-anchor="start" font-size="18">1</text>
			<text x="558" y="280" text-anchor="start">2</text>
			<text x="55" y="280" text-anchor="end">10</text>
			<text x="55" y="268" text-anchor="start" font-size="18">2</text>
			<text x="558" y="220" text-anchor="start">3</text>
			<text x="55" y="220" text-anchor="end">10</text>
			<text x="55" y="208" text-anchor="start" font-size="18">3</text>
			<text x="558" y="160" text-anchor="start">4</text>
			<text x="55" y="160" text-anchor="end">10</text>
			<text x="55" y="148" text-anchor="start" font-size="18">4</text>
			<text x="558" y="100" text-anchor="start">5</text>
			<text x="55" y="100" text-anchor="end">10</text>
			<text x="55" y="88" text-anchor="start" font-size="18">5</text>
			<text x="558" y="40" text-anchor="start">6</text>
			<text x="55" y="40" text-anchor="end">10</text>
			<text x="55" y="28" text-anchor="start" font-size="18">6</text>
			<!-- legend: -->
			<text x="498" y="65" text-anchor="start">Ss</text>
			<text x="498" y="95" text-anchor="start">Uu</text>
			<text x="498" y="125" text-anchor="start">Lu</text>
			<text x="498" y="155" text-anchor="start">Tt</text>
		</g>
	</g>
</svg>