# Rhino

mtllib hill_slope.mtl
o object_1
usemtl Default
v 1.496 0 8.149
v 1.496 1 8.149
v 2.921 0 7.36
v 2.921 1 7.36
v 4.444 0 6.557
v 4.444 1 6.557
v 5.89 0 5.836
v 5.89 1 5.836
v 7.394 0 5.131
v 7.394 1 5.131
v 8.92 0 4.465
v 8.92 1 4.465
v 10.46 0 3.838
v 10.46 1 3.838
v 12.03 0 3.251
v 12.03 1 3.251
v 13.6 0 2.709
v 13.6 1 2.709
v 15.15 0 2.226
v 15.15 1 2.226
v 16.8 0 1.762
v 16.8 1 1.762
v 18.41 0 1.364
v 18.41 1 1.364
v 20.04 0 1.018
v 20.04 1 1.018
v 21.67 0 0.7213
v 21.67 1 0.7213
v 23.29 0 0.4754
v 23.29 1 0.4754
v 25 0 0.25
v 25 1 0.25
v 0 0 9
v 0 1 9
v 1.496 0 8.149
v 1.496 1 8.149
vn 0.4844 0 0.8749
vn 0.4844 0 0.8749
vn 0.4754 0 0.8798
vn 0.4754 0 0.8798
vn 0.4563 0 0.8898
vn 0.4563 0 0.8898
vn 0.4354 0 0.9003
vn 0.4354 0 0.9003
vn 0.4123 0 0.9111
vn 0.4123 0 0.9111
vn 0.3886 0 0.9214
vn 0.3886 0 0.9214
vn 0.3637 0 0.9315
vn 0.3637 0 0.9315
vn 0.3383 0 0.941
vn 0.3383 0 0.941
vn 0.3119 0 0.9501
vn 0.3119 0 0.9501
vn 0.2841 0 0.9588
vn 0.2841 0 0.9588
vn 0.2554 0 0.9668
vn 0.2554 0 0.9668
vn 0.2238 0 0.9746
vn 0.2238 0 0.9746
vn 0.1934 0 0.9811
vn 0.1934 0 0.9811
vn 0.1646 0 0.9864
vn 0.1646 0 0.9864
vn 0.1404 0 0.9901
vn 0.1404 0 0.9901
vn 0.1307 0 0.9914
vn 0.1307 0 0.9914
vn 0.4944 0 0.8692
vn 0.4944 0 0.8692
vn 0.4944 0 0.8692
vn 0.4944 0 0.8692
f 4//4 2//2 1//1 3//3
f 6//6 4//4 3//3 5//5
f 8//8 6//6 5//5 7//7
f 10//10 8//8 7//7 9//9
f 12//12 10//10 9//9 11//11
f 14//14 12//12 11//11 13//13
f 16//16 14//14 13//13 15//15
f 18//18 16//16 15//15 17//17
f 20//20 18//18 17//17 19//19
f 22//22 20//20 19//19 21//21
f 24//24 22//22 21//21 23//23
f 26//26 24//24 23//23 25//25
f 28//28 26//26 25//25 27//27
f 30//30 28//28 27//27 29//29
f 32//32 30//30 29//29 31//31
f 36//36 34//34 33//33 35//35
