# Rhino

mtllib sloping_mesh.mtl
o object_1
usemtl Default
v 4 0 6.661e-16
v 3.733 0 0.06667
v 3.467 0 0.1333
v 3.2 0 0.2
v 2.933 0 0.2667
v 2.667 0 0.3333
v 2.4 0 0.4
v 2.133 0 0.4667
v 1.867 0 0.5333
v 1.6 0 0.6
v 1.333 0 0.6667
v 1.067 0 0.7333
v 0.8 0 0.8
v 0.5333 0 0.8667
v 0.2667 0 0.9333
v 8.327e-17 0 1
v 4 0.8 6.404e-16
v 3.733 0.8 0.06667
v 3.467 0.8 0.1333
v 3.2 0.8 0.2
v 2.933 0.8 0.2667
v 2.667 0.8 0.3333
v 2.4 0.8 0.4
v 2.133 0.8 0.4667
v 1.867 0.8 0.5333
v 1.6 0.8 0.6
v 1.333 0.8 0.6667
v 1.067 0.8 0.7333
v 0.8 0.8 0.8
v 0.5333 0.8 0.8667
v 0.2667 0.8 0.9333
v 7.682e-17 0.8 1
v 4 1.6 6.146e-16
v 3.733 1.6 0.06667
v 3.467 1.6 0.1333
v 3.2 1.6 0.2
v 2.933 1.6 0.2667
v 2.667 1.6 0.3333
v 2.4 1.6 0.4
v 2.133 1.6 0.4667
v 1.867 1.6 0.5333
v 1.6 1.6 0.6
v 1.333 1.6 0.6667
v 1.067 1.6 0.7333
v 0.8 1.6 0.8
v 0.5333 1.6 0.8667
v 0.2667 1.6 0.9333
v 7.038e-17 1.6 1
v 4 2.4 5.888e-16
v 3.733 2.4 0.06667
v 3.467 2.4 0.1333
v 3.2 2.4 0.2
v 2.933 2.4 0.2667
v 2.667 2.4 0.3333
v 2.4 2.4 0.4
v 2.133 2.4 0.4667
v 1.867 2.4 0.5333
v 1.6 2.4 0.6
v 1.333 2.4 0.6667
v 1.067 2.4 0.7333
v 0.8 2.4 0.8
v 0.5333 2.4 0.8667
v 0.2667 2.4 0.9333
v 6.393e-17 2.4 1
v 4 3.2 5.63e-16
v 3.733 3.2 0.06667
v 3.467 3.2 0.1333
v 3.2 3.2 0.2
v 2.933 3.2 0.2667
v 2.667 3.2 0.3333
v 2.4 3.2 0.4
v 2.133 3.2 0.4667
v 1.867 3.2 0.5333
v 1.6 3.2 0.6
v 1.333 3.2 0.6667
v 1.067 3.2 0.7333
v 0.8 3.2 0.8
v 0.5333 3.2 0.8667
v 0.2667 3.2 0.9333
v 5.748e-17 3.2 1
v 4 4 5.372e-16
v 3.733 4 0.06667
v 3.467 4 0.1333
v 3.2 4 0.2
v 2.933 4 0.2667
v 2.667 4 0.3333
v 2.4 4 0.4
v 2.133 4 0.4667
v 1.867 4 0.5333
v 1.6 4 0.6
v 1.333 4 0.6667
v 1.067 4 0.7333
v 0.8 4 0.8
v 0.5333 4 0.8667
v 0.2667 4 0.9333
v 5.104e-17 4 1
vn 0.2425 3.127e-17 0.9701
vn 0.2425 3.345e-17 0.9701
vn 0.2425 3.325e-17 0.9701
vn 0.2425 3.304e-17 0.9701
vn 0.2425 3.957e-17 0.9701
vn 0.2425 3.936e-17 0.9701
vn 0.2425 2.569e-17 0.9701
vn 0.2425 2.548e-17 0.9701
vn 0.2425 5.22e-17 0.9701
vn 0.2425 2.507e-17 0.9701
vn 0.2425 2.486e-17 0.9701
vn 0.2425 5.158e-17 0.9701
vn 0.2425 3.118e-17 0.9701
vn 0.2425 3.098e-17 0.9701
vn 0.2425 2.74e-17 0.9701
vn 0.2425 2.888e-17 0.9701
vn 0.2425 3.127e-17 0.9701
vn 0.2425 3.345e-17 0.9701
vn 0.2425 3.325e-17 0.9701
vn 0.2425 3.304e-17 0.9701
vn 0.2425 3.957e-17 0.9701
vn 0.2425 3.936e-17 0.9701
vn 0.2425 2.569e-17 0.9701
vn 0.2425 2.548e-17 0.9701
vn 0.2425 5.22e-17 0.9701
vn 0.2425 2.507e-17 0.9701
vn 0.2425 2.486e-17 0.9701
vn 0.2425 5.158e-17 0.9701
vn 0.2425 3.118e-17 0.9701
vn 0.2425 3.098e-17 0.9701
vn 0.2425 2.74e-17 0.9701
vn 0.2425 2.888e-17 0.9701
vn 0.2425 3.127e-17 0.9701
vn 0.2425 3.345e-17 0.9701
vn 0.2425 3.325e-17 0.9701
vn 0.2425 3.304e-17 0.9701
vn 0.2425 3.957e-17 0.9701
vn 0.2425 3.936e-17 0.9701
vn 0.2425 2.569e-17 0.9701
vn 0.2425 2.548e-17 0.9701
vn 0.2425 5.22e-17 0.9701
vn 0.2425 2.507e-17 0.9701
vn 0.2425 2.486e-17 0.9701
vn 0.2425 5.158e-17 0.9701
vn 0.2425 3.118e-17 0.9701
vn 0.2425 3.098e-17 0.9701
vn 0.2425 2.74e-17 0.9701
vn 0.2425 2.888e-17 0.9701
vn 0.2425 3.127e-17 0.9701
vn 0.2425 3.345e-17 0.9701
vn 0.2425 3.325e-17 0.9701
vn 0.2425 3.304e-17 0.9701
vn 0.2425 3.957e-17 0.9701
vn 0.2425 3.936e-17 0.9701
vn 0.2425 2.569e-17 0.9701
vn 0.2425 2.548e-17 0.9701
vn 0.2425 5.22e-17 0.9701
vn 0.2425 2.507e-17 0.9701
vn 0.2425 2.486e-17 0.9701
vn 0.2425 5.158e-17 0.9701
vn 0.2425 3.118e-17 0.9701
vn 0.2425 3.098e-17 0.9701
vn 0.2425 2.74e-17 0.9701
vn 0.2425 2.888e-17 0.9701
vn 0.2425 3.127e-17 0.9701
vn 0.2425 3.345e-17 0.9701
vn 0.2425 3.325e-17 0.9701
vn 0.2425 3.304e-17 0.9701
vn 0.2425 3.957e-17 0.9701
vn 0.2425 3.936e-17 0.9701
vn 0.2425 2.569e-17 0.9701
vn 0.2425 2.548e-17 0.9701
vn 0.2425 5.22e-17 0.9701
vn 0.2425 2.507e-17 0.9701
vn 0.2425 2.486e-17 0.9701
vn 0.2425 5.158e-17 0.9701
vn 0.2425 3.118e-17 0.9701
vn 0.2425 3.098e-17 0.9701
vn 0.2425 2.74e-17 0.9701
vn 0.2425 2.888e-17 0.9701
vn 0.2425 3.127e-17 0.9701
vn 0.2425 3.345e-17 0.9701
vn 0.2425 3.325e-17 0.9701
vn 0.2425 3.304e-17 0.9701
vn 0.2425 3.957e-17 0.9701
vn 0.2425 3.936e-17 0.9701
vn 0.2425 2.569e-17 0.9701
vn 0.2425 2.548e-17 0.9701
vn 0.2425 5.22e-17 0.9701
vn 0.2425 2.507e-17 0.9701
vn 0.2425 2.486e-17 0.9701
vn 0.2425 5.158e-17 0.9701
vn 0.2425 3.118e-17 0.9701
vn 0.2425 3.098e-17 0.9701
vn 0.2425 2.74e-17 0.9701
vn 0.2425 2.888e-17 0.9701
f 1//1 17//17 18//18 2//2
f 2//2 18//18 19//19 3//3
f 3//3 19//19 20//20 4//4
f 4//4 20//20 21//21 5//5
f 5//5 21//21 22//22 6//6
f 6//6 22//22 23//23 7//7
f 7//7 23//23 24//24 8//8
f 8//8 24//24 25//25 9//9
f 9//9 25//25 26//26 10//10
f 10//10 26//26 27//27 11//11
f 11//11 27//27 28//28 12//12
f 12//12 28//28 29//29 13//13
f 13//13 29//29 30//30 14//14
f 14//14 30//30 31//31 15//15
f 15//15 31//31 32//32 16//16
f 17//17 33//33 34//34 18//18
f 18//18 34//34 35//35 19//19
f 19//19 35//35 36//36 20//20
f 20//20 36//36 37//37 21//21
f 21//21 37//37 38//38 22//22
f 22//22 38//38 39//39 23//23
f 23//23 39//39 40//40 24//24
f 24//24 40//40 41//41 25//25
f 25//25 41//41 42//42 26//26
f 26//26 42//42 43//43 27//27
f 27//27 43//43 44//44 28//28
f 28//28 44//44 45//45 29//29
f 29//29 45//45 46//46 30//30
f 30//30 46//46 47//47 31//31
f 31//31 47//47 48//48 32//32
f 33//33 49//49 50//50 34//34
f 34//34 50//50 51//51 35//35
f 35//35 51//51 52//52 36//36
f 36//36 52//52 53//53 37//37
f 37//37 53//53 54//54 38//38
f 38//38 54//54 55//55 39//39
f 39//39 55//55 56//56 40//40
f 40//40 56//56 57//57 41//41
f 41//41 57//57 58//58 42//42
f 42//42 58//58 59//59 43//43
f 43//43 59//59 60//60 44//44
f 44//44 60//60 61//61 45//45
f 45//45 61//61 62//62 46//46
f 46//46 62//62 63//63 47//47
f 47//47 63//63 64//64 48//48
f 49//49 65//65 66//66 50//50
f 50//50 66//66 67//67 51//51
f 51//51 67//67 68//68 52//52
f 52//52 68//68 69//69 53//53
f 53//53 69//69 70//70 54//54
f 54//54 70//70 71//71 55//55
f 55//55 71//71 72//72 56//56
f 56//56 72//72 73//73 57//57
f 57//57 73//73 74//74 58//58
f 58//58 74//74 75//75 59//59
f 59//59 75//75 76//76 60//60
f 60//60 76//76 77//77 61//61
f 61//61 77//77 78//78 62//62
f 62//62 78//78 79//79 63//63
f 63//63 79//79 80//80 64//64
f 65//65 81//81 82//82 66//66
f 66//66 82//82 83//83 67//67
f 67//67 83//83 84//84 68//68
f 68//68 84//84 85//85 69//69
f 69//69 85//85 86//86 70//70
f 70//70 86//86 87//87 71//71
f 71//71 87//87 88//88 72//72
f 72//72 88//88 89//89 73//73
f 73//73 89//89 90//90 74//74
f 74//74 90//90 91//91 75//75
f 75//75 91//91 92//92 76//76
f 76//76 92//92 93//93 77//77
f 77//77 93//93 94//94 78//78
f 78//78 94//94 95//95 79//79
f 79//79 95//95 96//96 80//80
